%TF.GenerationSoftware,KiCad,Pcbnew,8.0.0*%
%TF.CreationDate,2024-03-28T11:28:23-03:00*%
%TF.ProjectId,POND_MOD05SEM06,504f4e44-5f4d-44f4-9430-3553454d3036,rev?*%
%TF.SameCoordinates,Original*%
%TF.FileFunction,Soldermask,Top*%
%TF.FilePolarity,Negative*%
%FSLAX46Y46*%
G04 Gerber Fmt 4.6, Leading zero omitted, Abs format (unit mm)*
G04 Created by KiCad (PCBNEW 8.0.0) date 2024-03-28 11:28:23*
%MOMM*%
%LPD*%
G01*
G04 APERTURE LIST*
%ADD10R,2.020000X5.020000*%
%ADD11O,2.020000X5.020000*%
%ADD12C,1.400000*%
%ADD13O,1.400000X1.400000*%
%ADD14R,1.800000X1.800000*%
%ADD15C,1.800000*%
%ADD16O,1.800000X1.800000*%
%ADD17O,1.500000X1.500000*%
%ADD18O,1.700000X1.700000*%
%ADD19R,3.500000X1.700000*%
%ADD20R,1.700000X1.700000*%
%ADD21R,1.700000X3.500000*%
%ADD22O,1.600000X1.200000*%
%ADD23O,1.200000X1.200000*%
G04 APERTURE END LIST*
D10*
%TO.C,J1*%
X117790000Y-49000000D03*
D11*
X122970000Y-49000000D03*
%TD*%
D12*
%TO.C,R1*%
X117690000Y-60500000D03*
D13*
X125310000Y-60500000D03*
%TD*%
D14*
%TO.C,D1*%
X117550000Y-71250000D03*
D15*
X117550000Y-68710000D03*
%TD*%
D13*
%TO.C,R2*%
X123310000Y-90000000D03*
D12*
X115690000Y-90000000D03*
%TD*%
D16*
%TO.C,U1*%
X94420552Y-43865552D03*
D17*
X94720552Y-46895552D03*
X99570552Y-46895552D03*
D16*
X99870552Y-43865552D03*
D18*
X88255552Y-43735552D03*
D19*
X87355552Y-43735552D03*
D18*
X88255552Y-46275552D03*
D19*
X87355552Y-46275552D03*
D20*
X88255552Y-48815552D03*
D19*
X87355552Y-48815552D03*
D18*
X88255552Y-51355552D03*
D19*
X87355552Y-51355552D03*
D18*
X88255552Y-53895552D03*
D19*
X87355552Y-53895552D03*
D18*
X88255552Y-56435552D03*
D19*
X87355552Y-56435552D03*
D18*
X88255552Y-58975552D03*
D19*
X87355552Y-58975552D03*
D20*
X88255552Y-61515552D03*
D19*
X87355552Y-61515552D03*
D18*
X88255552Y-64055552D03*
D19*
X87355552Y-64055552D03*
D18*
X88255552Y-66595552D03*
D19*
X87355552Y-66595552D03*
D18*
X88255552Y-69135552D03*
D19*
X87355552Y-69135552D03*
D18*
X88255552Y-71675552D03*
D19*
X87355552Y-71675552D03*
D20*
X88255552Y-74215552D03*
D19*
X87355552Y-74215552D03*
D18*
X88255552Y-76755552D03*
D19*
X87355552Y-76755552D03*
D18*
X88255552Y-79295552D03*
D19*
X87355552Y-79295552D03*
D18*
X88255552Y-81835552D03*
D19*
X87355552Y-81835552D03*
D18*
X88255552Y-84375552D03*
D19*
X87355552Y-84375552D03*
D20*
X88255552Y-86915552D03*
D19*
X87355552Y-86915552D03*
D18*
X88255552Y-89455552D03*
D19*
X87355552Y-89455552D03*
D18*
X88255552Y-91995552D03*
D19*
X87355552Y-91995552D03*
D18*
X106035552Y-91995552D03*
D19*
X106935552Y-91995552D03*
D18*
X106035552Y-89455552D03*
D19*
X106935552Y-89455552D03*
D20*
X106035552Y-86915552D03*
D19*
X106935552Y-86915552D03*
D18*
X106035552Y-84375552D03*
D19*
X106935552Y-84375552D03*
D18*
X106035552Y-81835552D03*
D19*
X106935552Y-81835552D03*
D18*
X106035552Y-79295552D03*
D19*
X106935552Y-79295552D03*
D18*
X106035552Y-76755552D03*
D19*
X106935552Y-76755552D03*
D20*
X106035552Y-74215552D03*
D19*
X106935552Y-74215552D03*
D18*
X106035552Y-71675552D03*
D19*
X106935552Y-71675552D03*
D18*
X106035552Y-69135552D03*
D19*
X106935552Y-69135552D03*
D18*
X106035552Y-66595552D03*
D19*
X106935552Y-66595552D03*
D18*
X106035552Y-64055552D03*
D19*
X106935552Y-64055552D03*
D20*
X106035552Y-61515552D03*
D19*
X106935552Y-61515552D03*
D18*
X106035552Y-58975552D03*
D19*
X106935552Y-58975552D03*
D18*
X106035552Y-56435552D03*
D19*
X106935552Y-56435552D03*
D18*
X106035552Y-53895552D03*
D19*
X106935552Y-53895552D03*
D18*
X106035552Y-51355552D03*
D19*
X106935552Y-51355552D03*
D20*
X106035552Y-48815552D03*
D19*
X106935552Y-48815552D03*
D18*
X106035552Y-46275552D03*
D19*
X106935552Y-46275552D03*
D18*
X106035552Y-43735552D03*
D19*
X106935552Y-43735552D03*
D18*
X94605552Y-91765552D03*
D21*
X94605552Y-92665552D03*
D20*
X97145552Y-91765552D03*
D21*
X97145552Y-92665552D03*
D18*
X99685552Y-91765552D03*
D21*
X99685552Y-92665552D03*
%TD*%
D22*
%TO.C,Q1*%
X126585276Y-79815276D03*
D23*
X125315276Y-78545276D03*
X124045276Y-79815276D03*
%TD*%
M02*
